<?xml version="1.0" standalone="no"?>
<!DOCTYPE svg PUBLIC "-//W3C//DTD SVG 20010904//EN"
 "http://www.w3.org/TR/2001/REC-SVG-20010904/DTD/svg10.dtd">
<svg version="1.0" xmlns="http://www.w3.org/2000/svg"
 width="400.000000pt" height="400.000000pt" viewBox="0 0 400.000000 400.000000"
 preserveAspectRatio="xMidYMid meet">
<metadata>
Created by potrace 1.11, written by Peter Selinger 2001-2013
</metadata>
<g transform="translate(0.000000,400.000000) scale(0.100000,-0.100000)"
fill="#000000" stroke="none">
<path d="M674 3225 c-69 -14 -127 -54 -159 -110 -55 -93 -62 -148 -70 -530 -4
-247 -15 -309 -66 -373 -26 -34 -87 -72 -115 -72 -12 0 -32 -8 -45 -18 -18
-15 -22 -28 -22 -69 1 -71 14 -89 76 -107 88 -26 132 -82 164 -207 3 -13 7
-143 9 -289 2 -146 5 -292 8 -325 17 -237 118 -338 331 -330 96 3 115 19 115
95 0 80 -14 89 -157 99 -7 1 -20 12 -29 25 -35 55 -42 120 -45 419 -2 233 -6
305 -19 357 -23 88 -47 136 -90 179 -52 51 -62 58 -101 66 l-34 8 30 10 c90
30 170 128 193 237 17 79 20 119 22 365 2 354 17 389 161 393 41 2 48 5 59 31
26 63 10 133 -32 147 -35 11 -126 10 -184 -1z"/>
<path d="M3202 3230 c-93 -6 -105 -19 -100 -103 5 -67 14 -77 76 -77 51 0 107
-22 120 -47 24 -44 33 -147 36 -408 2 -160 9 -301 15 -328 25 -105 73 -164
164 -201 l56 -22 -33 -12 c-47 -17 -102 -76 -136 -147 -48 -96 -61 -190 -65
-460 -4 -258 -10 -333 -29 -380 -19 -45 -40 -57 -108 -62 -81 -5 -93 -17 -93
-93 0 -82 12 -92 117 -95 171 -4 261 56 304 203 24 80 24 87 29 357 6 380 13
425 80 527 25 38 89 77 126 78 9 0 21 6 27 13 15 17 21 86 10 124 -7 27 -14
32 -61 43 -64 15 -84 25 -120 58 -50 47 -58 100 -62 429 -2 164 -8 322 -14
351 -16 81 -50 148 -93 187 -62 57 -125 73 -246 65z"/>
<path d="M1046 2594 c-18 -17 -21 -85 -6 -114 9 -17 25 -18 181 -19 94 0 173
-2 176 -4 2 -3 5 -242 5 -531 1 -502 2 -527 19 -537 23 -12 74 -14 117 -5 28
7 32 12 33 39 0 18 1 258 1 535 l0 502 32 0 c17 1 95 1 173 1 107 1 145 4 153
14 18 21 20 91 4 114 -14 19 -25 20 -443 20 -379 1 -431 -1 -445 -15z"/>
<path d="M2153 2600 c-12 -5 -26 -18 -32 -28 -7 -13 -10 -212 -10 -581 0 -518
2 -562 18 -582 17 -21 23 -22 237 -21 120 1 233 3 249 6 47 7 116 34 159 62
205 136 194 455 -20 560 l-54 26 39 29 c65 46 103 127 104 219 1 100 -28 176
-88 228 -49 43 -84 60 -159 76 -74 15 -408 20 -443 6z m426 -160 c54 -30 81
-73 86 -137 5 -62 -9 -114 -41 -153 -46 -54 -76 -63 -215 -66 l-127 -3 1 194
1 195 125 -3 c113 -2 131 -5 170 -27z m37 -519 c27 -12 59 -31 71 -43 62 -58
70 -199 16 -266 -57 -70 -79 -77 -259 -80 l-161 -4 0 211 0 211 142 -4 c118
-3 149 -7 191 -25z"/>
</g>
</svg>
